<svg width="1600" height="900" viewBox="0 0 1600 900" xmlns="http://www.w3.org/2000/svg">
  <rect width="1600" height="900" rx="48" fill="#EDE4D4"/>
  <circle cx="150" cy="100" r="300" fill="#ACC2A3" opacity=".62"/>
  <circle cx="1460" cy="820" r="360" fill="#DCB0A5" opacity=".62"/>
  <path d="M800 130v640" stroke="#2C2722" stroke-width="5" opacity=".13"/>
  <g transform="rotate(-6 470 450)">
    <rect x="235" y="225" width="500" height="410" rx="34" fill="#FAF2DF" stroke="#2C2722" stroke-width="4"/>
    <path d="M322 530c80-115 148-173 260-227" fill="none" stroke="#8A3B43" stroke-width="20" stroke-linecap="round"/>
    <path d="M342 568c103-38 184-40 286-17" fill="none" stroke="#2C2722" stroke-width="13" stroke-linecap="round" opacity=".25"/>
    <path d="M586 303l42-28-10 50" fill="#8A3B43"/>
  </g>
  <g transform="rotate(6 1130 450)">
    <rect x="865" y="225" width="500" height="410" rx="34" fill="#F8EFDC" stroke="#2C2722" stroke-width="4"/>
    <rect x="980" y="320" width="270" height="200" rx="36" fill="#B7CAA9" stroke="#5E8C5A" stroke-width="5"/>
    <circle cx="1050" cy="416" r="23" fill="#2C2722"/><circle cx="1180" cy="416" r="23" fill="#2C2722"/>
    <path d="M1060 476h110" stroke="#2C2722" stroke-width="15" stroke-linecap="round"/>
    <path d="M1115 320v-58m-35 0h70" stroke="#5E8C5A" stroke-width="13" stroke-linecap="round"/>
  </g>
</svg>
